<?xml version="1.0" encoding="UTF-8"?>
<svg version="1.1" xmlns="http://www.w3.org/2000/svg" width="393" height="389">
<path d="M0 0 C0.96476257 -0.01252808 1.92952515 -0.02505615 2.92352295 -0.03796387 C23.11814198 -0.24960416 42.2680041 -0.36552466 61.81640625 5.2734375 C63.58155603 5.73748848 65.34718194 6.1997322 67.11328125 6.66015625 C92.78006857 13.61700343 116.19736455 26.62503412 136.81640625 43.2734375 C137.39326172 43.73911133 137.97011719 44.20478516 138.56445312 44.68457031 C153.08173297 56.5149503 164.52187136 69.64074086 174.81640625 85.2734375 C175.28965332 85.99160645 175.76290039 86.70977539 176.25048828 87.44970703 C205.11360436 131.78624493 213.52005282 182.35608934 203.78515625 234.23046875 C198.27118841 260.26264373 186.36867771 284.78911192 170.81640625 306.2734375 C170.41599121 306.8293457 170.01557617 307.38525391 169.60302734 307.95800781 C163.68159543 316.0996786 157.14440458 323.57107223 150.18457031 330.83789062 C148.99230687 332.08887368 147.82046903 333.35926075 146.65234375 334.6328125 C135.31135571 346.63061452 121.05645465 356.06388402 106.81640625 364.2734375 C106.09259766 364.69222168 105.36878906 365.11100586 104.62304688 365.54248047 C87.69415315 375.20306999 69.69143469 382.26818499 50.47949219 385.78198242 C48.3636413 386.17244885 46.25340112 386.5932943 44.14550781 387.0246582 C33.45451749 389.1473311 23.07993537 389.87505406 12.19140625 389.8359375 C11.35279053 389.8354541 10.5141748 389.8349707 9.65014648 389.83447266 C-43.38117913 389.62416998 -93.13890004 366.25364532 -130.99609375 329.7109375 C-135.37055772 325.16193133 -139.29525264 320.23807142 -143.18359375 315.2734375 C-143.60656738 314.73750977 -144.02954102 314.20158203 -144.46533203 313.64941406 C-161.87912223 291.40887014 -174.86952318 265.40322181 -181.53613281 237.92626953 C-181.98444109 236.08942274 -182.47369589 234.26226921 -182.99511719 232.44482422 C-185.85906433 221.3974447 -185.63735808 210.33391635 -185.57470703 198.98925781 C-185.55869174 195.5445149 -185.57458544 192.1009563 -185.59375 188.65625 C-185.60611313 175.87622524 -184.84925922 163.7769921 -182.18359375 151.2734375 C-181.99023438 150.30470703 -181.796875 149.33597656 -181.59765625 148.33789062 C-172.73895028 105.8094413 -146.05515941 65.08070546 -111.18359375 39.2734375 C-110.466875 38.72816406 -109.75015625 38.18289062 -109.01171875 37.62109375 C-77.94427302 14.85615507 -38.64601083 0.4580395 0 0 Z " fill="#1C1D20" transform="translate(185.18359375,-0.2734375)"/>
<path d="M0 0 C24.758698 -0.55869517 44.93498015 6.80558027 64.43359375 22.1171875 C65.51253906 22.94669922 65.51253906 22.94669922 66.61328125 23.79296875 C82.48430855 36.73063498 90.39485522 57.44089618 93.05078125 77.27734375 C95.53932065 102.23891751 87.4158678 126.74450716 72.328125 146.62109375 C69.51090033 150.33285986 66.98987139 154.22332273 64.43359375 158.1171875 C55.33464245 171.94011489 45.89325449 185.34305509 35.68115234 198.36987305 C31.51631197 203.69211612 27.46825059 209.0839859 23.49438477 214.54980469 C18.6358435 221.23176072 13.67015901 227.832337 8.70117188 234.43237305 C7.34756959 236.13606353 7.34756959 236.13606353 6.28588867 238.31665039 C4.43359375 240.1171875 4.43359375 240.1171875 0.78833008 240.47949219 C-0.71997418 240.43694922 -2.22775441 240.37204461 -3.734375 240.2890625 C-4.52918777 240.26120667 -5.32400055 240.23335083 -6.14289856 240.20465088 C-8.68107074 240.11129067 -11.2169856 239.9896049 -13.75390625 239.8671875 C-15.47453623 239.79891238 -17.19524054 239.73248349 -18.91601562 239.66796875 C-23.13397369 239.50578449 -27.35012686 239.31818845 -31.56640625 239.1171875 C-30.80004136 237.52325431 -30.02649629 235.93277224 -29.25 234.34375 C-28.82001709 233.45768066 -28.39003418 232.57161133 -27.94702148 231.65869141 C-26.32356853 228.67015998 -24.39405001 226.330296 -22.11328125 223.83203125 C-18.55884347 219.89163179 -15.37862343 215.74162185 -13.00390625 210.9921875 C-11.29168962 207.56775424 -9.04890374 205.02352602 -6.56640625 202.1171875 C-5.88578125 201.0859375 -5.20515625 200.0546875 -4.50390625 198.9921875 C-2.56640625 196.1171875 -2.56640625 196.1171875 -0.66015625 194.234375 C1.47835094 192.0719293 3.14628621 189.86875595 4.87109375 187.3671875 C5.77794922 186.05427734 5.77794922 186.05427734 6.703125 184.71484375 C8.21719903 182.44202382 9.65127356 180.14430182 11.05859375 177.8046875 C13.11725106 174.43039821 15.55296718 171.83777927 18.43359375 169.1171875 C18.76359375 168.4571875 19.09359375 167.7971875 19.43359375 167.1171875 C20.09359375 167.1171875 20.75359375 167.1171875 21.43359375 167.1171875 C21.43359375 166.4571875 21.43359375 165.7971875 21.43359375 165.1171875 C20.80453125 165.32214844 20.17546875 165.52710938 19.52734375 165.73828125 C-0.19989033 171.94760644 -21.18212293 169.49863066 -39.7578125 160.5859375 C-56.45221392 151.35722016 -67.83800949 138.50824881 -76.06640625 121.4921875 C-76.38061523 120.84886475 -76.69482422 120.20554199 -77.01855469 119.54272461 C-82.02470223 108.51192798 -83.1521078 97.04464769 -83.12890625 85.0546875 C-83.12867966 84.04529114 -83.12867966 84.04529114 -83.12844849 83.01550293 C-83.0411456 63.14101624 -77.97976656 46.64444353 -64.14453125 31.96875 C-62.45979599 30.1143619 -62.45979599 30.1143619 -61.1953125 27.66015625 C-56.59522484 20.47872443 -47.35616318 15.80584373 -40.06640625 11.5546875 C-39.47947998 11.20817139 -38.89255371 10.86165527 -38.2878418 10.50463867 C-35.00845795 8.65391605 -33.44690745 8.1171875 -29.56640625 8.1171875 C-29.56640625 7.4571875 -29.56640625 6.7971875 -29.56640625 6.1171875 C-25.35047265 4.80545615 -21.12964455 3.51874273 -16.88671875 2.296875 C-16.17016113 2.09046387 -15.45360352 1.88405273 -14.71533203 1.67138672 C-9.76720348 0.39528449 -5.08633705 0.16713046 0 0 Z " fill="#EFF3F5" transform="translate(191.56640625,75.8828125)"/>
<path d="M0 0 C14.96839361 -0.68238265 27.641992 4.90340461 38.78125 14.50390625 C48.30653447 23.46096339 54.79562015 33.24106472 55.77075195 46.61987305 C55.83767979 49.37298015 55.87858303 52.12512089 55.90625 54.87890625 C55.94975586 56.29333008 55.94975586 56.29333008 55.99414062 57.73632812 C56.07665782 66.97190647 53.3708974 74.32003431 47.96875 81.81640625 C47.37835938 82.65429688 46.78796875 83.4921875 46.1796875 84.35546875 C45.65632813 84.96132812 45.13296875 85.5671875 44.59375 86.19140625 C43.93375 86.19140625 43.27375 86.19140625 42.59375 86.19140625 C42.32820313 86.79082031 42.06265625 87.39023438 41.7890625 88.0078125 C37.14608931 96.48958379 25.7842273 101.68994025 16.984375 104.3984375 C0.99742994 108.13731981 -14.36640862 106.12908343 -28.63671875 98.10546875 C-31.59797761 96.05890056 -33.92522514 93.79194892 -36.40625 91.19140625 C-37.00308594 90.66417969 -37.59992188 90.13695312 -38.21484375 89.59375 C-46.4356336 82.20095338 -50.57891448 71.78388971 -51.62524414 60.91699219 C-52.44593477 44.99662195 -50.09519229 30.67542672 -39.62890625 18.046875 C-28.85749652 6.52653289 -15.44933479 1.22892436 0 0 Z " fill="#1A1C20" transform="translate(194.40625,107.80859375)"/>
<path d="M0 0 C2.125 0.375 2.125 0.375 4 1 C4 1.66 4 2.32 4 3 C3.34 3 2.68 3 2 3 C2 3.66 2 4.32 2 5 C2.99 5.495 2.99 5.495 4 6 C-19.16214769 21.69440414 -43.57836844 34.43160351 -71.33691406 39.50854492 C-73.45276495 39.89901135 -75.56300513 40.3198568 -77.67089844 40.7512207 C-88.36424948 42.87436232 -98.73499227 43.59191736 -109.625 43.5625 C-110.45597198 43.56467529 -111.28694397 43.56685059 -112.14309692 43.5690918 C-128.93364874 43.56428483 -144.73005767 41.02422869 -161 37 C-161 36.67 -161 36.34 -161 36 C-160.31292969 36.0721875 -159.62585938 36.144375 -158.91796875 36.21875 C-157.56638672 36.35796875 -157.56638672 36.35796875 -156.1875 36.5 C-154.84751953 36.63921875 -154.84751953 36.63921875 -153.48046875 36.78125 C-150.91694901 37.04392401 -150.91694901 37.04392401 -148 37 C-148 36.34 -148 35.68 -148 35 C-145.35375716 35.14021805 -142.70815422 35.28689776 -140.0625 35.4375 C-139.30775391 35.47681641 -138.55300781 35.51613281 -137.77539062 35.55664062 C-132.11328125 35.88671875 -132.11328125 35.88671875 -131 37 C-124.08130314 38.13578607 -117.05471412 38.15984187 -110.0625 38.125 C-109.09900635 38.12234131 -108.1355127 38.11968262 -107.14282227 38.11694336 C-98.96009728 38.06223952 -91.02308968 37.67256593 -83 36 C-82.071875 35.814375 -81.14375 35.62875 -80.1875 35.4375 C-79.465625 35.293125 -78.74375 35.14875 -78 35 C-78 34.34 -78 33.68 -78 33 C-77.236875 32.855625 -76.47375 32.71125 -75.6875 32.5625 C-72.91827092 32.0367406 -72.91827092 32.0367406 -70 31 C-67.6670386 30.95833998 -65.3329614 30.95833998 -63 31 C-62.01 31 -61.02 31 -60 31 C-60 30.67 -60 30.34 -60 30 C-57.03 29.67 -54.06 29.34 -51 29 C-51 27.68 -51 26.36 -51 25 C-50.34 24.34 -49.68 23.68 -49 23 C-47.515 23.495 -47.515 23.495 -46 24 C-43.87772162 24.12935233 -43.87772162 24.12935233 -41.625 23 C-39 22 -39 22 -35 22 C-33.31243867 21.03567924 -31.64333504 20.03789581 -30 19 C-29.34 19 -28.68 19 -28 19 C-28 19.99 -28 20.98 -28 22 C-25.03 20.68 -22.06 19.36 -19 18 C-21.64 18.66 -24.28 19.32 -27 20 C-27 18.68 -27 17.36 -27 16 C-23.94736336 15.01879536 -22.05263664 15.01879536 -19 16 C-19 15.34 -19 14.68 -19 14 C-17.71802734 13.38511719 -17.71802734 13.38511719 -16.41015625 12.7578125 C-15.30542969 12.21898437 -14.20070313 11.68015625 -13.0625 11.125 C-11.40927734 10.32449219 -11.40927734 10.32449219 -9.72265625 9.5078125 C-6.90595489 8.28340155 -6.90595489 8.28340155 -6 6 C-5.01 6 -4.02 6 -3 6 C-2.814375 5.071875 -2.814375 5.071875 -2.625 4.125 C-2 2 -2 2 0 0 Z " fill="#0D0E0E" transform="translate(307,346)"/>
<path d="M0 0 C0.66 0 1.32 0 2 0 C2.66 1.65 3.32 3.3 4 5 C4.66 4.67 5.32 4.34 6 4 C17.51301131 34.04378514 22.46391957 62.77317688 19 95 C18.67 95 18.34 95 18 95 C17.98018066 94.1248877 17.96036133 93.24977539 17.93994141 92.34814453 C17.75827205 61.32402318 17.75827205 61.32402318 12 31 C11.34 30.67 10.68 30.34 10 30 C9.22216797 28.20581055 9.22216797 28.20581055 8.4921875 25.88671875 C8.22792969 25.05076172 7.96367187 24.21480469 7.69140625 23.35351562 C7.28728516 22.03383789 7.28728516 22.03383789 6.875 20.6875 C6.59785156 19.81931641 6.32070313 18.95113281 6.03515625 18.05664062 C4.80812486 14.11865564 4 11.17899215 4 7 C3.34 7 2.68 7 2 7 C1.34 4.69 0.68 2.38 0 0 Z " fill="#17171A" transform="translate(372,113)"/>
<path d="M0 0 C0.33 0.66 0.66 1.32 1 2 C1.66 2 2.32 2 3 2 C3 3.65 3 5.3 3 7 C2.34 7 1.68 7 1 7 C1.20625 7.886875 1.4125 8.77375 1.625 9.6875 C2.04520326 13.39929547 1.58005535 14.68188376 0 18 C-10.33046163 42.25412731 -9.61570978 72.10229928 -9 98 C-9.66 98 -10.32 98 -11 98 C-13.70181828 67.99051837 -10.8012049 38.85989889 -1.4362793 10.13769531 C-0.12726801 6.10742606 -0.12726801 6.10742606 -1 2 C-0.67 1.34 -0.34 0.68 0 0 Z " fill="#06060A" transform="translate(13,118)"/>
<path d="M0 0 C-0.05078125 2.3125 -0.05078125 2.3125 -1 5 C-3.46362624 6.28914279 -5.57189281 7.1609238 -8.1875 8 C-8.90856934 8.24854736 -9.62963867 8.49709473 -10.37255859 8.75317383 C-11.86054894 9.2656603 -13.35116238 9.77059078 -14.84423828 10.26806641 C-17.96760994 11.32852713 -21.03978467 12.52135164 -24.125 13.6875 C-42.66300757 20.25658755 -42.66300757 20.25658755 -49 18 C-49.33 16.68 -49.66 15.36 -50 14 C-49.236875 13.855625 -48.47375 13.71125 -47.6875 13.5625 C-44.91827092 13.0367406 -44.91827092 13.0367406 -42 12 C-39.6670386 11.95833998 -37.3329614 11.95833998 -35 12 C-34.01 12 -33.02 12 -32 12 C-32 11.67 -32 11.34 -32 11 C-27.545 10.505 -27.545 10.505 -23 10 C-23 8.68 -23 7.36 -23 6 C-22.34 5.34 -21.68 4.68 -21 4 C-20.01 4.33 -19.02 4.66 -18 5 C-15.87772162 5.12935233 -15.87772162 5.12935233 -13.625 4 C-11 3 -11 3 -7 3 C-1.75 0 -1.75 0 0 0 Z " fill="#131315" transform="translate(279,365)"/>
<path d="M0 0 C1.34113427 4.0234028 0.25876636 5.75613541 -1.125 9.75 C-10.36466199 37.88050856 -11.35691421 65.71381592 -11 95 C-11.33 95 -11.66 95 -12 95 C-13.06654378 86.46764976 -13.21945737 78.01236762 -13.24023438 69.42626953 C-13.24986913 67.03251422 -13.28094751 64.63964618 -13.3125 62.24609375 C-13.41365167 47.56947666 -11.19748165 33.56855858 -7.5 19.375 C-7.20029297 18.16650391 -7.20029297 18.16650391 -6.89453125 16.93359375 C-5.58859152 11.80133378 -3.93958139 6.92788992 -2 2 C-1.34 2 -0.68 2 0 2 C0 1.34 0 0.68 0 0 Z " fill="#2B2B2E" transform="translate(13,121)"/>
<path d="M0 0 C2.6875 0.875 2.6875 0.875 5 2 C5 2.66 5 3.32 5 4 C5.99 4.2475 6.98 4.495 8 4.75 C10.90746073 5.56809118 13.44976687 6.6638515 16.125 8.0625 C19.06727884 9.58495824 21.63483799 10.80204929 25 11 C25.66 10.34 26.32 9.68 27 9 C27.02964844 9.61359375 27.05929688 10.2271875 27.08984375 10.859375 C27.85270952 13.33791025 27.85270952 13.33791025 30.94140625 14.265625 C32.13636719 14.59046875 33.33132812 14.9153125 34.5625 15.25 C35.76003906 15.58515625 36.95757812 15.9203125 38.19140625 16.265625 C39.11824219 16.50796875 40.04507813 16.7503125 41 17 C40.34 17.99 39.68 18.98 39 20 C40.32 20.66 41.64 21.32 43 22 C39.55332515 23.14889162 38.79375439 22.83655984 35.47265625 21.671875 C34.59802734 21.36636719 33.72339844 21.06085938 32.82226562 20.74609375 C31.91154297 20.41738281 31.00082031 20.08867187 30.0625 19.75 C29.15564453 19.43675781 28.24878906 19.12351562 27.31445312 18.80078125 C23.02496365 17.27941707 19.56722064 15.88884221 16 13 C16.33 12.67 16.66 12.34 17 12 C10.4 8.7 3.8 5.4 -3 2 C-2.01 1.34 -1.02 0.68 0 0 Z " fill="#0D0D0E" transform="translate(103,359)"/>
<path d="M0 0 C0.33 0 0.66 0 1 0 C1.99 7.92 2.98 15.84 4 24 C4 23.67 4 23.34 4 23 C4 20 4 17 4 14 C6 15 6 15 6.77783203 17.20556641 C7.13917236 18.63908447 7.13917236 18.63908447 7.5078125 20.1015625 C7.77207031 21.14957031 8.03632813 22.19757813 8.30859375 23.27734375 C8.57800781 24.38207031 8.84742188 25.48679688 9.125 26.625 C9.40214844 27.70652344 9.67929688 28.78804687 9.96484375 29.90234375 C11.32611024 35.39434993 12.37309677 40.33866206 12 46 C10.02 46.495 10.02 46.495 8 47 C7.03581666 43.5432712 6.07976067 40.08434213 5.125 36.625 C4.85558594 35.65949219 4.58617187 34.69398438 4.30859375 33.69921875 C1.83710117 24.71745305 -0.29507175 16.22894644 -0.125 6.875 C-0.10695312 5.57304687 -0.08890625 4.27109375 -0.0703125 2.9296875 C-0.04710937 1.96289062 -0.02390625 0.99609375 0 0 Z " fill="#09090C" transform="translate(0,206)"/>
<path d="M0 0 C0.99 0.33 1.98 0.66 3 1 C3 2.65 3 4.3 3 6 C2.38125 6.2475 1.7625 6.495 1.125 6.75 C-1.45751682 8.26912754 -1.79710858 9.2934943 -3 12 C-5.45243576 15.84214935 -7.92482879 19.62723157 -11 23 C-11.99 23 -12.98 23 -14 23 C-14.1875 20.1875 -14.1875 20.1875 -14 17 C-12.6875 15.5 -12.6875 15.5 -11 14 C-9.95377125 12.02379014 -8.94560065 10.0262871 -8 8 C-7.34 8 -6.68 8 -6 8 C-6 7.34 -6 6.68 -6 6 C-5.34 6 -4.68 6 -4 6 C-4 5.01 -4 4.02 -4 3 C-2.68 2.67 -1.36 2.34 0 2 C0 1.34 0 0.68 0 0 Z " fill="#151D28" transform="translate(190,264)"/>
<path d="M0 0 C0.33 0 0.66 0 1 0 C1.23165971 7.87175026 0.60751132 15.62399394 -0.171875 23.44970703 C-0.37458193 25.49578013 -0.56667028 27.54266161 -0.7578125 29.58984375 C-1.4527432 36.82132276 -2.35964697 43.91637023 -4 51 C-4.33 51 -4.66 51 -5 51 C-4.67 46.38 -4.34 41.76 -4 37 C-4.66 40.63 -5.32 44.26 -6 48 C-6.66 48 -7.32 48 -8 48 C-7.53571062 37.75361366 -6.07002769 28.02466238 -4 18 C-3.34 18.99 -2.68 19.98 -2 21 C-1.01 10.605 -1.01 10.605 0 0 Z " fill="#000103" transform="translate(392,187)"/>
<path d="M0 0 C0.99 0.33 1.98 0.66 3 1 C3 2.65 3 4.3 3 6 C1.35 6.33 -0.3 6.66 -2 7 C-1.67 8.65 -1.34 10.3 -1 12 C2.3 11.67 5.6 11.34 9 11 C9 11.33 9 11.66 9 12 C12.3 12.33 15.6 12.66 19 13 C19 13.33 19 13.66 19 14 C9.76 14 0.52 14 -9 14 C-3.375 2.75 -3.375 2.75 0 0 Z " fill="#E4E8EF" transform="translate(169,301)"/>
<path d="M0 0 C7.0948566 -0.58154562 13.22603603 0.55754565 20.0625 2.3125 C20.92012939 2.52543701 21.77775879 2.73837402 22.66137695 2.95776367 C23.46534912 3.17408447 24.26932129 3.39040527 25.09765625 3.61328125 C25.82476807 3.80704346 26.55187988 4.00080566 27.30102539 4.20043945 C27.86168701 4.46429443 28.42234863 4.72814941 29 5 C29.33 5.99 29.66 6.98 30 8 C27.03 7.505 27.03 7.505 24 7 C23.34 8.32 22.68 9.64 22 11 C21.67 10.01 21.34 9.02 21 8 C18.65768903 6.51759375 18.65768903 6.51759375 16 6 C14.327767 6.65257873 12.66072849 7.31867549 11 8 C10.67 7.01 10.34 6.02 10 5 C9.34 4.67 8.68 4.34 8 4 C8.33 3.67 8.66 3.34 9 3 C4.545 2.01 4.545 2.01 0 1 C0 0.67 0 0.34 0 0 Z " fill="#1C1D1F" transform="translate(229,3)"/>
<path d="M0 0 C0 0.66 0 1.32 0 2 C1.98 2 3.96 2 6 2 C6 2.33 6 2.66 6 3 C-13.8 3 -33.6 3 -54 3 C-54 2.67 -54 2.34 -54 2 C-35.9663615 -0.13958423 -18.12578394 -0.22225542 0 0 Z " fill="#3A3B3D" transform="translate(222,0)"/>
<path d="M0 0 C0.309375 0.639375 0.61875 1.27875 0.9375 1.9375 C1.8345163 3.93610821 1.8345163 3.93610821 3 5 C3.97296798 11.76966454 4.15679159 18.41878177 4.125 25.25 C4.12306641 26.25619385 4.12113281 27.2623877 4.11914062 28.29907227 C4.07697704 35.5740479 3.77793565 42.76242014 3 50 C2.67 50 2.34 50 2 50 C1.97494385 49.1248877 1.9498877 48.24977539 1.92407227 47.34814453 C1.2478705 23.66181055 1.2478705 23.66181055 0 0 Z " fill="#303133" transform="translate(388,158)"/>
<path d="M0 0 C1.66666667 1.66666667 3.33333333 3.33333333 5 5 C5.99 5.33 6.98 5.66 8 6 C7.95875 7.051875 7.9175 8.10375 7.875 9.1875 C8.02786228 13.84979946 8.68518684 16.68518684 12 20 C12.59834554 21.52056618 13.13506656 23.06612088 13.625 24.625 C13.88539062 25.44226563 14.14578125 26.25953125 14.4140625 27.1015625 C14.60742188 27.72804688 14.80078125 28.35453125 15 29 C12.03595495 26.19195732 9.55500981 23.81684226 8 20 C7.34 20.33 6.68 20.66 6 21 C4 15.25 4 15.25 4 13 C3.01764973 10.44325801 1.94446842 7.93157659 0.875 5.41015625 C0 3 0 3 0 0 Z " fill="#0B0A0D" transform="translate(16,264)"/>
<path d="M0 0 C0 0.66 0 1.32 0 2 C-2.01759276 3.38297902 -4.01785808 4.64278005 -6.125 5.875 C-14.4111752 10.6719746 -14.4111752 10.6719746 -21.75 16.75 C-22.86375 17.86375 -22.86375 17.86375 -24 19 C-24.66 19 -25.32 19 -26 19 C-26 18.34 -26 17.68 -26 17 C-24.35 16.34 -22.7 15.68 -21 15 C-21 14.34 -21 13.68 -21 13 C-21.66 12.67 -22.32 12.34 -23 12 C-20.90516399 10.29962669 -18.80057275 8.61493394 -16.6875 6.9375 C-16.09259766 6.45216797 -15.49769531 5.96683594 -14.88476562 5.46679688 C-13.3162821 4.23128751 -11.66163416 3.10706635 -10 2 C-9.01 2.33 -8.02 2.66 -7 3 C-1.65217391 0 -1.65217391 0 0 0 Z " fill="#0C0C0D" transform="translate(92,31)"/>
<path d="M0 0 C0.33 0 0.66 0 1 0 C0.17930512 11.98646476 -1.23377937 23.29391147 -4.9375 34.75 C-5.19039795 35.54937988 -5.4432959 36.34875977 -5.70385742 37.17236328 C-6.37292228 39.15015078 -7.17678086 41.08125004 -8 43 C-9.485 43.495 -9.485 43.495 -11 44 C-9.54007154 38.39767289 -7.96766259 32.86187157 -6.15185547 27.36328125 C-3.19922297 18.35719919 -1.42498515 9.36087803 0 0 Z " fill="#26272A" transform="translate(388,220)"/>
<path d="M0 0 C1.25153097 3.54051525 0.71225946 5.62407828 -0.5 9.125 C-1.05336191 10.73261177 -1.56477821 12.35646509 -2 14 C-1.67 14.66 -1.34 15.32 -1 16 C-2.07408957 18.60474038 -3.20045633 21.09966038 -4.4375 23.625 C-4.77587891 24.33140625 -5.11425781 25.0378125 -5.46289062 25.765625 C-6.30154879 27.51381384 -7.14987847 29.25735686 -8 31 C-9.39195915 26.82412255 -7.82323219 24.86525224 -6 21 C-6.66 21.33 -7.32 21.66 -8 22 C-8.66 19.69 -9.32 17.38 -10 15 C-8.35 15 -6.7 15 -5 15 C-4.96261719 14.38511719 -4.92523438 13.77023437 -4.88671875 13.13671875 C-4.82097656 12.32847656 -4.75523437 11.52023437 -4.6875 10.6875 C-4.62949219 9.88699219 -4.57148438 9.08648437 -4.51171875 8.26171875 C-3.90786477 5.59277637 -2.97744031 4.8147717 -1 3 C-0.67 2.01 -0.34 1.02 0 0 Z " fill="#0E1014" transform="translate(380,249)"/>
<path d="M0 0 C0.99 0.33 1.98 0.66 3 1 C2.67 1.66 2.34 2.32 2 3 C2.33 3.99 2.66 4.98 3 6 C2.34 6 1.68 6 1 6 C1 6.66 1 7.32 1 8 C0.071875 8.12375 0.071875 8.12375 -0.875 8.25 C-3.14785979 8.80581505 -3.14785979 8.80581505 -4.1875 10.875 C-4.83464059 12.56752155 -5.42698864 14.28096593 -6 16 C-7.9375 16.75 -7.9375 16.75 -10 17 C-10.66 16.67 -11.32 16.34 -12 16 C-12 15.34 -12 14.68 -12 14 C-14.31 14.33 -16.62 14.66 -19 15 C-19 14.34 -19 13.68 -19 13 C-18.38253906 13.06703125 -17.76507813 13.1340625 -17.12890625 13.203125 C-14.04979046 13.25936456 -11.91563686 13.05253281 -9 12 C-5.42595261 8.33176102 -2.70595148 4.33344404 0 0 Z " fill="#13161B" transform="translate(205,303)"/>
<path d="M0 0 C0.66 0 1.32 0 2 0 C2.33 0.66 2.66 1.32 3 2 C3.66 1.67 4.32 1.34 5 1 C4.34 2.98 3.68 4.96 3 7 C2.67 6.34 2.34 5.68 2 5 C-0.0624994 6.81222534 -0.0624994 6.81222534 -2 9 C-2 9.99 -2 10.98 -2 12 C-2.99 12 -3.98 12 -5 12 C-5.33 12.99 -5.66 13.98 -6 15 C-6.97691857 16.68029994 -7.97388051 18.34928604 -9 20 C-10.32 19.67 -11.64 19.34 -13 19 C-10.88598588 15.82586867 -8.75702593 12.66205534 -6.625 9.5 C-6.02171875 8.59378906 -5.4184375 7.68757812 -4.796875 6.75390625 C-4.21679688 5.89667969 -3.63671875 5.03945312 -3.0390625 4.15625 C-2.23782959 2.96225586 -2.23782959 2.96225586 -1.42041016 1.74414062 C-0.9516748 1.16857422 -0.48293945 0.59300781 0 0 Z " fill="#141519" transform="translate(256,233)"/>
<path d="M0 0 C2.58464442 4.38008443 1.81479148 7.11125113 1 12 C0.01 12 -0.98 12 -2 12 C-2.99 14.64 -3.98 17.28 -5 20 C-5.99 19.34 -6.98 18.68 -8 18 C-6.83791965 10.67889378 -4.440745 5.90702873 0 0 Z " fill="#E6ECF3" transform="translate(121,116)"/>
<path d="M0 0 C2.6875 0.875 2.6875 0.875 5 2 C5 2.66 5 3.32 5 4 C5.99 4.2475 6.98 4.495 8 4.75 C12.28983141 5.97195198 16.06832565 7.92693534 20 10 C21.155 10.5775 22.31 11.155 23.5 11.75 C24.325 12.1625 25.15 12.575 26 13 C24.68 13.33 23.36 13.66 22 14 C22.33 14.66 22.66 15.32 23 16 C18.25 15.25 18.25 15.25 16 13 C16.33 12.67 16.66 12.34 17 12 C10.4 8.7 3.8 5.4 -3 2 C-2.01 1.34 -1.02 0.68 0 0 Z " fill="#070608" transform="translate(103,359)"/>
<path d="M0 0 C2.15478516 -0.34057617 2.15478516 -0.34057617 4.7890625 -0.29296875 C5.73007813 -0.28330078 6.67109375 -0.27363281 7.640625 -0.26367188 C9.11789063 -0.2259668 9.11789063 -0.2259668 10.625 -0.1875 C12.11386719 -0.16719727 12.11386719 -0.16719727 13.6328125 -0.14648438 C16.08908072 -0.11105743 18.54427285 -0.06166196 21 0 C20.01 0.495 20.01 0.495 19 1 C19 1.99 19 2.98 19 4 C12.07 3.67 5.14 3.34 -2 3 C-1.34 2.01 -0.68 1.02 0 0 Z " fill="#06060A" transform="translate(165,315)"/>
<path d="M0 0 C1.35643489 2.71286978 0.59646399 4.02985278 0 7 C-0.11879215 9.59685172 -0.18994224 12.15390232 -0.1875 14.75 C-0.18814453 15.45576172 -0.18878906 16.16152344 -0.18945312 16.88867188 C-0.1356303 22.21713157 0.54097915 26.89342703 2 32 C0.68 31.67 -0.64 31.34 -2 31 C-3.22726282 26.19894786 -3.18371207 21.48301512 -3.1875 16.5625 C-3.19974609 15.72912109 -3.21199219 14.89574219 -3.22460938 14.03710938 C-3.23585202 9.29646236 -2.89086617 5.43545186 -1 1 C-0.67 0.67 -0.34 0.34 0 0 Z " fill="#0A0A0E" transform="translate(146,145)"/>
<path d="M0 0 C0.66 0 1.32 0 2 0 C0.32771693 3.75354842 -2.03742052 6.92635242 -4.5 10.1875 C-4.90347656 10.73341797 -5.30695313 11.27933594 -5.72265625 11.84179688 C-8.75209263 15.87604632 -8.75209263 15.87604632 -11 17 C-10.67 14.03 -10.34 11.06 -10 8 C-9.34 8 -8.68 8 -8 8 C-8 7.34 -8 6.68 -8 6 C-7.34 6 -6.68 6 -6 6 C-6 5.34 -6 4.68 -6 4 C-5.34 4 -4.68 4 -4 4 C-4 3.01 -4 2.02 -4 1 C-2.68 1.33 -1.36 1.66 0 2 C0 1.34 0 0.68 0 0 Z " fill="#0A0D0F" transform="translate(355,303)"/>
<path d="M0 0 C0.66 0.33 1.32 0.66 2 1 C0.27153297 3.83376069 -1.45790492 6.6669277 -3.1875 9.5 C-3.91163086 10.68722656 -3.91163086 10.68722656 -4.65039062 11.8984375 C-7.73624431 16.95178178 -10.85066779 21.98596574 -14 27 C-14.98308955 24.42104806 -15.14504231 23.34584984 -14.05957031 20.75756836 C-13.57069336 19.95971924 -13.08181641 19.16187012 -12.578125 18.33984375 C-12.04703125 17.46392578 -11.5159375 16.58800781 -10.96875 15.68554688 C-10.4015625 14.77869141 -9.834375 13.87183594 -9.25 12.9375 C-8.42242187 11.57141602 -8.42242187 11.57141602 -7.578125 10.17773438 C-3.09187233 2.86061313 -3.09187233 2.86061313 0 0 Z " fill="#2C2C2D" transform="translate(35,80)"/>
<path d="M0 0 C0.99 0 1.98 0 3 0 C3 0.99 3 1.98 3 3 C3.66 3 4.32 3 5 3 C5 2.34 5 1.68 5 1 C6.65 1 8.3 1 10 1 C9.67 2.65 9.34 4.3 9 6 C13.455 7.98 13.455 7.98 18 10 C18 10.99 18 11.98 18 13 C13.48629502 12.43996623 10.51445013 10.68631604 6.75 8.1875 C5.69296875 7.50042969 4.6359375 6.81335938 3.546875 6.10546875 C1 4 1 4 0.140625 1.73828125 C0.09421875 1.16464844 0.0478125 0.59101563 0 0 Z " fill="#07070A" transform="translate(78,344)"/>
<path d="M0 0 C0.99 0 1.98 0 3 0 C1.69746074 4.374199 0.01054987 7.96406031 -2.4375 11.8125 C-3.03433594 12.76769531 -3.63117188 13.72289062 -4.24609375 14.70703125 C-6 17 -6 17 -9 18 C-9.33 18.66 -9.66 19.32 -10 20 C-10.33 18.68 -10.66 17.36 -11 16 C-10.34 16 -9.68 16 -9 16 C-7.0549 13.08235 -6.54723683 11.37462715 -6 8 C-5.34 8 -4.68 8 -4 8 C-3.67 6.68 -3.34 5.36 -3 4 C-2.34 4 -1.68 4 -1 4 C-0.67 2.68 -0.34 1.36 0 0 Z " fill="#324550" transform="translate(246,176)"/>
<path d="M0 0 C-3.06384266 3.20973993 -5.01126705 4.94885864 -9.625 5.1875 C-13 5 -13 5 -14 4 C-16.69082872 4.17635452 -19.32851446 4.61835921 -22 5 C-16.65611667 -1.11447466 -7.50544812 -0.28204189 0 0 Z M-16 5 C-15.01 5.33 -14.02 5.66 -13 6 C-13.99 6.33 -14.98 6.66 -16 7 C-16 6.34 -16 5.68 -16 5 Z " fill="#2C2C2E" transform="translate(166,3)"/>
<path d="M0 0 C1.65 0.33 3.3 0.66 5 1 C1.50817102 4.59452983 -2.00700747 7.96185351 -6 11 C-6.99 11 -7.98 11 -9 11 C-9.99 11.495 -9.99 11.495 -11 12 C-9.55873214 8.63704165 -7.79407345 6.37072898 -5 4 C-4.01 4 -3.02 4 -2 4 C-1.34 2.68 -0.68 1.36 0 0 Z " fill="#0C0C0D" transform="translate(323,336)"/>
<path d="M0 0 C0.33 0 0.66 0 1 0 C1.22307542 2.2277397 1.42788178 4.45731364 1.625 6.6875 C1.74101562 7.92886719 1.85703125 9.17023438 1.9765625 10.44921875 C2.00018762 14.02842412 1.4533999 15.80252022 0 19 C-0.42148875 20.92792077 -0.79676438 22.8665317 -1.125 24.8125 C-1.29257812 25.78832031 -1.46015625 26.76414063 -1.6328125 27.76953125 C-1.75398438 28.50558594 -1.87515625 29.24164063 -2 30 C-2.66 30 -3.32 30 -4 30 C-3.53571062 19.75361366 -2.07002769 10.02466238 0 0 Z " fill="#03070C" transform="translate(388,205)"/>
<path d="M0 0 C1.37027539 4.11082617 -0.04754562 6.99397197 -1.375 10.9375 C-3.35111896 16.92090027 -3.35111896 16.92090027 -5 23 C-5.66 23 -6.32 23 -7 23 C-7.33 23.99 -7.66 24.98 -8 26 C-7.55052002 17.45988044 -4.85091417 9.98466367 -2 2 C-1.34 2 -0.68 2 0 2 C0 1.34 0 0.68 0 0 Z " fill="#181819" transform="translate(13,121)"/>
<path d="M0 0 C2.97 1.98 2.97 1.98 6 4 C6.33 2.68 6.66 1.36 7 0 C8.5625 1.25 8.5625 1.25 10 3 C9.625 4.9375 9.625 4.9375 9 7 C9.165 7.639375 9.33 8.27875 9.5 8.9375 C10.13180761 11.5437064 9.64331611 13.42673558 9 16 C8.01 15.01 7.02 14.02 6 13 C6.66 13 7.32 13 8 13 C7.4225 12.22914063 6.845 11.45828125 6.25 10.6640625 C5.5075 9.66117187 4.765 8.65828125 4 7.625 C3.2575 6.62726563 2.515 5.62953125 1.75 4.6015625 C0 2 0 2 0 0 Z " fill="#0E0E11" transform="translate(38,304)"/>
<path d="M0 0 C0 0.33 0 0.66 0 1 C-4.62 1.33 -9.24 1.66 -14 2 C-12.68 2.66 -11.36 3.32 -10 4 C-18.415 4.495 -18.415 4.495 -27 5 C-27.33 4.01 -27.66 3.02 -28 2 C-18.53149174 0.21168141 -9.59567793 -0.23889655 0 0 Z " fill="#070808" transform="translate(190,0)"/>
<path d="M0 0 C0.33 0.66 0.66 1.32 1 2 C1.66 2 2.32 2 3 2 C2.67 2.99 2.34 3.98 2 5 C1.34 4.67 0.68 4.34 0 4 C0.33 5.65 0.66 7.3 1 9 C-4.29230769 13.92307692 -4.29230769 13.92307692 -7.875 14.3125 C-8.926875 14.1578125 -8.926875 14.1578125 -10 14 C-9.21625 13.443125 -8.4325 12.88625 -7.625 12.3125 C-4.82565115 9.84640697 -4.17871701 8.45195696 -3 5 C-2.02763513 3.3170608 -1.03435556 1.64556566 0 0 Z " fill="#263139" transform="translate(235,188)"/>
<path d="M0 0 C1.90112305 0.50732422 1.90112305 0.50732422 4.01171875 1.5546875 C4.76904297 1.92207031 5.52636719 2.28945313 6.30664062 2.66796875 C7.09232422 3.06628906 7.87800781 3.46460938 8.6875 3.875 C9.88342773 4.46087891 9.88342773 4.46087891 11.10351562 5.05859375 C13.0754613 6.0268545 15.04013428 7.00757485 17 8 C17 8.33 17 8.66 17 9 C11.73006278 9.45402536 8.15991509 7.95207309 3.625 5.5 C2.98433594 5.16613281 2.34367187 4.83226562 1.68359375 4.48828125 C0.11666329 3.66973549 -1.44250241 2.83635487 -3 2 C-2.01 1.34 -1.02 0.68 0 0 Z " fill="#101010" transform="translate(105,363)"/>
<path d="M0 0 C0.99 0.33 1.98 0.66 3 1 C3 2.65 3 4.3 3 6 C1.35 6.33 -0.3 6.66 -2 7 C-2.33 8.32 -2.66 9.64 -3 11 C-3.66 11 -4.32 11 -5 11 C-5.68359375 9.234375 -5.68359375 9.234375 -6 7 C-4.78515625 5.078125 -4.78515625 5.078125 -3.0625 3.25 C-2.49660156 2.63640625 -1.93070313 2.0228125 -1.34765625 1.390625 C-0.90292969 0.93171875 -0.45820313 0.4728125 0 0 Z " fill="#DDE4EC" transform="translate(169,301)"/>
<path d="M0 0 C0.33 0.66 0.66 1.32 1 2 C1.66 2 2.32 2 3 2 C3 3.65 3 5.3 3 7 C2.34 7 1.68 7 1 7 C1.20625 7.886875 1.4125 8.77375 1.625 9.6875 C2.02828957 13.24989119 1.69063087 14.88567997 0 18 C-0.66 18.33 -1.32 18.66 -2 19 C-3.6198159 14.43506428 -2.29360182 11.37952875 -0.59375 7.0859375 C0.25859474 4.83600604 0.25859474 4.83600604 -1 2 C-0.67 1.34 -0.34 0.68 0 0 Z " fill="#0C0C0D" transform="translate(13,118)"/>
<path d="M0 0 C3.63 0 7.26 0 11 0 C11 0.66 11 1.32 11 2 C11.639375 2.103125 12.27875 2.20625 12.9375 2.3125 C13.618125 2.539375 14.29875 2.76625 15 3 C15.33 3.99 15.66 4.98 16 6 C11.82366356 7.39211215 10.21039485 5.9535579 6.3125 4.0625 C5.13300781 3.49660156 3.95351562 2.93070312 2.73828125 2.34765625 C1.83464844 1.90292969 0.93101562 1.45820312 0 1 C0 0.67 0 0.34 0 0 Z " fill="#2D2F2E" transform="translate(225,80)"/>
<path d="M0 0 C0.33 0 0.66 0 1 0 C0.14285714 8.57142857 0.14285714 8.57142857 -2 12 C-3.98 12 -5.96 12 -8 12 C-6.46920333 8.55570748 -4.38345294 5.90483327 -2 3 C-1.34 2.01 -0.68 1.02 0 0 Z " fill="#D8E7ED" transform="translate(187,275)"/>
<path d="M0 0 C0.66 0.33 1.32 0.66 2 1 C2 1.66 2 2.32 2 3 C1.34 3 0.68 3 0 3 C-0.20496094 3.69867188 -0.40992188 4.39734375 -0.62109375 5.1171875 C-0.89050781 6.02726562 -1.15992188 6.93734375 -1.4375 7.875 C-1.83775391 9.23238281 -1.83775391 9.23238281 -2.24609375 10.6171875 C-3 13 -3 13 -4 15 C-4.66 15 -5.32 15 -6 15 C-6 14.01 -6 13.02 -6 12 C-6.33 11.01 -6.66 10.02 -7 9 C-6.22265625 6.95703125 -6.22265625 6.95703125 -5.0625 4.8125 C-4.68222656 4.09707031 -4.30195313 3.38164063 -3.91015625 2.64453125 C-3.60980469 2.10183594 -3.30945313 1.55914062 -3 1 C-2.34 1.33 -1.68 1.66 -1 2 C-0.67 1.34 -0.34 0.68 0 0 Z " fill="#111213" transform="translate(22,104)"/>
<path d="M0 0 C0.99 0.66 1.98 1.32 3 2 C2.01 2 1.02 2 0 2 C1.65 2.33 3.3 2.66 5 3 C4.75 4.875 4.75 4.875 4 7 C1.41847698 8.72101535 0.15081975 9 -3 9 C-3.33 7.68 -3.66 6.36 -4 5 C-3.34 5 -2.68 5 -2 5 C-1.7834375 4.0409375 -1.7834375 4.0409375 -1.5625 3.0625 C-1 1 -1 1 0 0 Z " fill="#13171E" transform="translate(164,296)"/>
<path d="M0 0 C3.75730247 1.6281644 6.616823 4.01401917 9.75 6.625 C11.22726563 7.85089844 11.22726563 7.85089844 12.734375 9.1015625 C13.85585937 10.04128906 13.85585937 10.04128906 15 11 C12.13822943 12.43088528 10.06624227 11.59991697 7 11 C7.33 9.68 7.66 8.36 8 7 C6.35 6.67 4.7 6.34 3 6 C3 5.01 3 4.02 3 3 C1.68 2.34 0.36 1.68 -1 1 C-0.67 0.67 -0.34 0.34 0 0 Z " fill="#101116" transform="translate(129,220)"/>
<path d="M0 0 C0.33 1.98 0.66 3.96 1 6 C-2.40931897 7.13643966 -3.00335456 6.86747764 -6.1875 5.5625 C-6.90292969 5.27503906 -7.61835938 4.98757812 -8.35546875 4.69140625 C-9.16951172 4.34916016 -9.16951172 4.34916016 -10 4 C-9.67 3.01 -9.34 2.02 -9 1 C-6.03421164 -0.16513114 -3.15436364 -0.08762121 0 0 Z " fill="#303032" transform="translate(279,16)"/>
<path d="M0 0 C0 0.66 0 1.32 0 2 C-0.66 2 -1.32 2 -2 2 C-2.2475 2.78375 -2.495 3.5675 -2.75 4.375 C-4.15389099 7.32317108 -5.00675737 7.9024777 -8 9 C-8.33 8.01 -8.66 7.02 -9 6 C-11.00016466 4.79117904 -11.00016466 4.79117904 -13 4 C-10.34531286 2.23020858 -8.92500069 1.57859829 -5.9375 0.875 C-5.24527344 0.70742187 -4.55304688 0.53984375 -3.83984375 0.3671875 C-2 0 -2 0 0 0 Z " fill="#223546" transform="translate(213,241)"/>
<path d="M0 0 C2.88437779 1.29299694 4.87219421 2.65941363 7 5 C6.67 5.66 6.34 6.32 6 7 C3 7 0 7 -3 7 C-3 5.35 -3 3.7 -3 2 C-2.01 2 -1.02 2 0 2 C0 1.34 0 0.68 0 0 Z " fill="#363437" transform="translate(323,49)"/>
<path d="M0 0 C0.99 0.33 1.98 0.66 3 1 C0.10933941 10.59453303 0.10933941 10.59453303 -3 14 C-4.07511878 9.60993163 -4.3257941 6.95377757 -2.0625 3.0625 C-1.381875 2.051875 -0.70125 1.04125 0 0 Z " fill="#DBDFE6" transform="translate(196,263)"/>
<path d="M0 0 C0.33 0 0.66 0 1 0 C0.98839844 1.19496094 0.97679687 2.38992187 0.96484375 3.62109375 C0.87827909 15.34321693 0.87827909 15.34321693 2 27 C-1.71728269 20.19018801 -2.28255173 12.62889683 -2 5 C-1.34 5 -0.68 5 0 5 C0 3.35 0 1.7 0 0 Z " fill="#252629" transform="translate(4,211)"/>
<path d="M0 0 C0 0.33 0 0.66 0 1 C4.455 1.99 4.455 1.99 9 3 C8.67 3.66 8.34 4.32 8 5 C6.04196493 5.05389087 4.08351091 5.09274217 2.125 5.125 C1.03445312 5.14820313 -0.05609375 5.17140625 -1.1796875 5.1953125 C-4 5 -4 5 -6 3 C-6.99 2.34 -7.98 1.68 -9 1 C-5.92677456 0.08941469 -3.19902639 -0.08886184 0 0 Z " fill="#0B0D0F" transform="translate(198,208)"/>
<path d="M0 0 C4.39575777 3.48629064 5.79693531 7.68869219 7 13 C7.20624974 15.40478419 7.15434373 17.58194825 7 20 C4.16556078 17.16556078 3.50198033 13.74786481 2.375 10 C2.14554687 9.26265625 1.91609375 8.5253125 1.6796875 7.765625 C0 2.28664435 0 2.28664435 0 0 Z " fill="#333437" transform="translate(377,120)"/>
<path d="M0 0 C-20.77967077 6.61609301 -20.77967077 6.61609301 -26 5 C-25.01 5 -24.02 5 -23 5 C-22.67 4.01 -22.34 3.02 -22 2 C-20.88625 2.061875 -19.7725 2.12375 -18.625 2.1875 C-14.1689569 2.21921561 -10.46479553 1.05187738 -6.296875 -0.44140625 C-3.77958247 -1.05360494 -2.41957734 -0.83797289 0 0 Z " fill="#2D2F2E" transform="translate(256,378)"/>
<path d="M0 0 C8 -0.30769231 8 -0.30769231 11 2 C11.75 4.125 11.75 4.125 12 6 C13.65 6.33 15.3 6.66 17 7 C15.421875 7.71484375 15.421875 7.71484375 13 8 C10.61505544 6.94290501 8.48765933 5.8682111 6.25 4.5625 C5.64800781 4.22412109 5.04601562 3.88574219 4.42578125 3.53710938 C2.94431935 2.70231735 1.47129392 1.85258506 0 1 C0 0.67 0 0.34 0 0 Z " fill="#28292D" transform="translate(163,203)"/>
<path d="M0 0 C0.309375 0.639375 0.61875 1.27875 0.9375 1.9375 C1.8345163 3.93610821 1.8345163 3.93610821 3 5 C3.1245486 6.64230364 3.17568524 8.29052276 3.1875 9.9375 C3.20167969 10.83339844 3.21585938 11.72929687 3.23046875 12.65234375 C3 15 3 15 1 17 C-2.03742032 12.44386953 -1.3586349 7.15180939 -0.5 2 C-0.335 1.34 -0.17 0.68 0 0 Z " fill="#F8F9FC" transform="translate(139,148)"/>
<path d="M0 0 C6.75 3.5 6.75 3.5 9 8 C6.03 7.67 3.06 7.34 0 7 C0 4.66666667 0 2.33333333 0 0 Z " fill="#363638" transform="translate(312,40)"/>
<path d="M0 0 C2.89508545 1.44754273 5.17294585 3.2107393 7.625 5.3125 C7.295 5.9725 6.965 6.6325 6.625 7.3125 C5.903125 7.003125 5.18125 6.69375 4.4375 6.375 C1.69820297 5.22192024 1.69820297 5.22192024 -1.0625 4.9375 C-3.375 4.3125 -3.375 4.3125 -4.6875 2.25 C-4.914375 1.610625 -5.14125 0.97125 -5.375 0.3125 C-2.375 -0.6875 -2.375 -0.6875 0 0 Z " fill="#181818" transform="translate(295.375,24.6875)"/>
<path d="M0 0 C-1.38681571 3.34551419 -2.79584298 4.86764741 -5.875 6.75 C-6.55304688 7.17796875 -7.23109375 7.6059375 -7.9296875 8.046875 C-10 9 -10 9 -14 9 C-14 8.34 -14 7.68 -14 7 C-11.4453125 5.2734375 -11.4453125 5.2734375 -8.125 3.375 C-7.03445313 2.74335938 -5.94390625 2.11171875 -4.8203125 1.4609375 C-2 0 -2 0 0 0 Z " fill="#121214" transform="translate(304,354)"/>
<path d="M0 0 C0.99 0.66 1.98 1.32 3 2 C1.87970983 3.48273699 0.75361382 4.96108886 -0.375 6.4375 C-1.31472656 7.67306641 -1.31472656 7.67306641 -2.2734375 8.93359375 C-4 11 -4 11 -6 12 C-6.66 11.67 -7.32 11.34 -8 11 C-8 10.34 -8 9.68 -8 9 C-7.34 9 -6.68 9 -6 9 C-6 8.34 -6 7.68 -6 7 C-5.01 7 -4.02 7 -3 7 C-3 5.68 -3 4.36 -3 3 C-2.34 3 -1.68 3 -1 3 C-0.67 2.01 -0.34 1.02 0 0 Z " fill="#283843" transform="translate(186,272)"/>
<path d="M0 0 C0.75 1.5625 0.75 1.5625 1 4 C0.04525277 6.63418211 -1.18710018 8.86055301 -3 11 C-5.75 11.9375 -5.75 11.9375 -8 12 C-6.74772034 6.99088137 -5.16160983 4.98782244 -1 2 C-0.67 1.34 -0.34 0.68 0 0 Z " fill="#C3D0D7" transform="translate(209,246)"/>
<path d="M0 0 C0.66 0.33 1.32 0.66 2 1 C1.34 2.98 0.68 4.96 0 7 C-3.63 6.67 -7.26 6.34 -11 6 C-7 3 -7 3 -3 3 C-3 2.34 -3 1.68 -3 1 C-2.01 0.67 -1.02 0.34 0 0 Z " fill="#D4D8DB" transform="translate(165,81)"/>
<path d="M0 0 C-1.98 2.97 -3.96 5.94 -6 9 C-6.66 8.67 -7.32 8.34 -8 8 C-7.34 6.35 -6.68 4.7 -6 3 C-6.66 2.34 -7.32 1.68 -8 1 C-4.59449725 -1.06762667 -4.18836538 -1.04709135 0 0 Z " fill="#E4E5E9" transform="translate(249,244)"/>
<path d="M0 0 C0.99 0.66 1.98 1.32 3 2 C1.35 5.3 -0.3 8.6 -2 12 C-2.99 11.67 -3.98 11.34 -5 11 C-4.54917531 9.53932801 -4.08906463 8.08151968 -3.625 6.625 C-3.36976563 5.81289062 -3.11453125 5.00078125 -2.8515625 4.1640625 C-2 2 -2 2 0 0 Z " fill="#0A131E" transform="translate(203,246)"/>
<path d="M0 0 C2 1 2 1 3.1875 3.5625 C4.19372496 7.8196056 3.73953399 10.71070285 3 15 C2.31379969 13.67661368 1.65213539 12.34050052 1 11 C0.608125 10.21625 0.21625 9.4325 -0.1875 8.625 C-1.18282829 5.40932399 -0.75410503 3.24265162 0 0 Z " fill="#26272B" transform="translate(377,129)"/>
<path d="M0 0 C0.66 0.33 1.32 0.66 2 1 C2.33 1.99 2.66 2.98 3 4 C2.34 4 1.68 4 1 4 C1 4.66 1 5.32 1 6 C-1.31 6.66 -3.62 7.32 -6 8 C-6 5 -6 5 -4.6875 3.61328125 C-3.125 2.40885417 -1.5625 1.20442708 0 0 Z " fill="#26272A" transform="translate(165,117)"/>
<path d="M0 0 C4.50419983 0.85409827 7.03017333 3.47747469 10.25 6.5625 C10.80429687 7.08263672 11.35859375 7.60277344 11.9296875 8.13867188 C13.29256828 9.41930985 14.64711683 10.7088049 16 12 C15.67 12.99 15.34 13.98 15 15 C14.38125 14.360625 13.7625 13.72125 13.125 13.0625 C9.5806068 9.49755959 5.7808117 6.21402959 2.01171875 2.890625 C1.34785156 2.26671875 0.68398438 1.6428125 0 1 C0 0.67 0 0.34 0 0 Z " fill="#282829" transform="translate(323,46)"/>
<path d="M0 0 C0.33 0.99 0.66 1.98 1 3 C0.319375 3.61875 0.319375 3.61875 -0.375 4.25 C-2.05950374 6.06408095 -2.99265971 7.75285627 -4 10 C-4.99 9.34 -5.98 8.68 -7 8 C-6.38722388 5.03824877 -5.74627478 3.61941217 -4 1 C-1.875 0.3125 -1.875 0.3125 0 0 Z " fill="#0C0E12" transform="translate(215,294)"/>
<path d="M0 0 C2.90802461 2.21928194 4.95312762 3.92969143 7 7 C7 7.99 7 8.98 7 10 C6.34 10 5.68 10 5 10 C4.67 9.34 4.34 8.68 4 8 C3.360625 7.87625 2.72125 7.7525 2.0625 7.625 C0 7 0 7 -1.25 4.9375 C-1.62125 3.9784375 -1.62125 3.9784375 -2 3 C-1.34 3 -0.68 3 0 3 C0 2.01 0 1.02 0 0 Z " fill="#08090D" transform="translate(31,293)"/>
<path d="M0 0 C0.33 0 0.66 0 1 0 C1.19417201 4.17469817 1.05278746 7.30498258 -1 11 C-3.28746533 12.47578409 -5.40402647 13.13467549 -8 14 C-6.95211676 10.76108816 -5.6420687 8.42363434 -3.4375 5.875 C-0.85782237 3.19395804 -0.85782237 3.19395804 0 0 Z " fill="#D2D6DD" transform="translate(178,287)"/>
<path d="M0 0 C1.32 0.33 2.64 0.66 4 1 C1.69 3.97 -0.62 6.94 -3 10 C-3.33 8.68 -3.66 7.36 -4 6 C-4.66 6 -5.32 6 -6 6 C-5.67 5.01 -5.34 4.02 -5 3 C-2.4375 1.8125 -2.4375 1.8125 0 1 C0 0.67 0 0.34 0 0 Z " fill="#E5E8EB" transform="translate(230,265)"/>
<path d="M0 0 C0 0.66 0 1.32 0 2 C-2.31493349 3.95322513 -4.03271325 5.01430369 -7.11328125 4.96875 C-9.08584862 4.71648561 -11.04505431 4.3644814 -13 4 C-10.56272708 2.37515139 -8.62713877 1.34310925 -5.9375 0.3125 C-5.24527344 0.04050781 -4.55304688 -0.23148438 -3.83984375 -0.51171875 C-2 -1 -2 -1 0 0 Z " fill="#D2D5D6" transform="translate(224,208)"/>
<path d="M0 0 C0.99 0.66 1.98 1.32 3 2 C2.67 3.32 2.34 4.64 2 6 C0.1875 6.6875 0.1875 6.6875 -2 7 C-3.75 5.5625 -3.75 5.5625 -5 4 C-3.35 2.68 -1.7 1.36 0 0 Z " fill="#E0E9EF" transform="translate(140,95)"/>
<path d="M0 0 C1.32 0.33 2.64 0.66 4 1 C3.24172908 2.17487036 2.46792245 3.33972592 1.6875 4.5 C1.25824219 5.1496875 0.82898438 5.799375 0.38671875 6.46875 C-0.07089844 6.9740625 -0.52851563 7.479375 -1 8 C-1.99 8 -2.98 8 -4 8 C-3.67 5.69 -3.34 3.38 -3 1 C-2.34 1.33 -1.68 1.66 -1 2 C-0.67 1.34 -0.34 0.68 0 0 Z " fill="#DFE7E9" transform="translate(197,308)"/>
<path d="M0 0 C0 0.99 0 1.98 0 3 C0.99 2.34 1.98 1.68 3 1 C3.33 1.99 3.66 2.98 4 4 C2.35 5.65 0.7 7.3 -1 9 C-1.99 8.34 -2.98 7.68 -4 7 C-4 5.68 -4 4.36 -4 3 C-2 1.25 -2 1.25 0 0 Z " fill="#E3E9EB" transform="translate(222,272)"/>
<path d="M0 0 C-2.97 3.96 -2.97 3.96 -6 8 C-6.66 6.68 -7.32 5.36 -8 4 C-6.35687087 -0.79245996 -4.96654006 -1.24163502 0 0 Z " fill="#E5E8EB" transform="translate(265,221)"/>
<path d="M0 0 C2 1 2 1 2.875 2.6875 C3.06890753 6.27478933 1.08770413 8.2163945 -1 11 C-1.66 10.67 -2.32 10.34 -3 10 C-2.34 8.02 -1.68 6.04 -1 4 C-1.66 3.67 -2.32 3.34 -3 3 C-2.34 3 -1.68 3 -1 3 C-0.67 2.01 -0.34 1.02 0 0 Z " fill="#E7E8EB" transform="translate(251,232)"/>
<path d="M0 0 C0.99 0.33 1.98 0.66 3 1 C2.42415568 3.38564077 1.77772405 5.66682784 1 8 C-0.65 8.33 -2.3 8.66 -4 9 C-2.94124926 5.59687262 -1.99097846 2.98646769 0 0 Z " fill="#212224" transform="translate(151,131)"/>
<path d="M0 0 C4.71403788 0.47939368 8.66579301 0.96834048 13 3 C10 4 10 4 7 3 C6.34 4.32 5.68 5.64 5 7 C4.67 6.01 4.34 5.02 4 4 C1.99983534 2.79117904 1.99983534 2.79117904 0 2 C0 1.34 0 0.68 0 0 Z " fill="#353638" transform="translate(246,7)"/>
<path d="M0 0 C6.75 -0.125 6.75 -0.125 9 1 C8.34 2.32 7.68 3.64 7 5 C6.34 4.67 5.68 4.34 5 4 C4.67 4.66 4.34 5.32 4 6 C2.62437146 4.71034824 1.29233607 3.37310707 0 2 C0 1.34 0 0.68 0 0 Z " fill="#2A2A2B" transform="translate(255,96)"/>
<path d="M0 0 C4 0 4 0 5.75 1.375 C7 3 7 3 7 5 C7.99 5.33 8.98 5.66 10 6 C10 6.66 10 7.32 10 8 C8 7 6 6 4 5 C3.67 5.66 3.34 6.32 3 7 C1 4 1 4 1 2 C0.67 1.34 0.34 0.68 0 0 Z " fill="#050609" transform="translate(66,336)"/>
<path d="M0 0 C1.65 0 3.3 0 5 0 C3.8141763 3.37503669 2.72426311 5.64722731 0 8 C-0.79953138 4.71303767 -1.09658936 3.28976808 0 0 Z " fill="#E2E8EB" transform="translate(210,288)"/>
<path d="M0 0 C0 0.66 0 1.32 0 2 C-2.1171875 3.54296875 -2.1171875 3.54296875 -4.875 5.1875 C-5.77992187 5.73792969 -6.68484375 6.28835937 -7.6171875 6.85546875 C-8.40351562 7.23316406 -9.18984375 7.61085938 -10 8 C-10.66 7.67 -11.32 7.34 -12 7 C-11.67 5.68 -11.34 4.36 -11 3 C-9.68 3 -8.36 3 -7 3 C-1.75 0 -1.75 0 0 0 Z " fill="#0B0C0D" transform="translate(92,31)"/>
<path d="M0 0 C1.65206447 0.92647536 3.2964997 1.86656574 4.9375 2.8125 C5.85402344 3.33457031 6.77054688 3.85664063 7.71484375 4.39453125 C10 6 10 6 11 9 C6.22390502 7.35821735 2.20617096 4.73453298 -2 2 C-1.34 1.34 -0.68 0.68 0 0 Z " fill="#181818" transform="translate(86,352)"/>
<path d="M0 0 C2.24151882 2.24151882 2.96301325 4.0067112 4.125 6.9375 C4.47820313 7.81277344 4.83140625 8.68804687 5.1953125 9.58984375 C6 12 6 12 6 15 C2.66475716 12.30004151 1.43648692 8.96744005 0 5 C-0.1875 2.0625 -0.1875 2.0625 0 0 Z " fill="#272629" transform="translate(15,265)"/>
<path d="M0 0 C5 7.5 5 7.5 5 10 C3.35 9.67 1.7 9.34 0 9 C-1.125 3.375 -1.125 3.375 0 0 Z " fill="#DCDCDC" transform="translate(146,182)"/>
<path d="M0 0 C-2.86120775 1.90747183 -5.35254993 3.00353706 -8.5625 4.1875 C-9.53316406 4.55230469 -10.50382812 4.91710937 -11.50390625 5.29296875 C-14 6 -14 6 -16 5 C-14.02 4.34 -12.04 3.68 -10 3 C-10 2.34 -10 1.68 -10 1 C-6.52674819 -0.1577506 -3.63932552 -0.06866652 0 0 Z " fill="#2D2D2F" transform="translate(136,10)"/>
<path d="M0 0 C1.43410153 3.78819273 0.51009497 6.06521279 -0.9375 9.75 C-1.31777344 10.73484375 -1.69804687 11.7196875 -2.08984375 12.734375 C-2.39019531 13.48203125 -2.69054687 14.2296875 -3 15 C-3.33 15 -3.66 15 -4 15 C-4.08131463 13.56344146 -4.13933559 12.1255517 -4.1875 10.6875 C-4.22230469 9.88699219 -4.25710938 9.08648437 -4.29296875 8.26171875 C-3.93167694 5.47254598 -3.04367233 4.83776076 -1 3 C-0.67 2.01 -0.34 1.02 0 0 Z " fill="#08090C" transform="translate(380,249)"/>
<path d="M0 0 C1.28497537 3.85492611 0.4052209 5.40346836 -0.9375 9.1875 C-1.31777344 10.27417969 -1.69804687 11.36085937 -2.08984375 12.48046875 C-2.39019531 13.31191406 -2.69054687 14.14335937 -3 15 C-3.33 15 -3.66 15 -4 15 C-4.16682272 10.07872966 -4.24828052 6.49656104 -2 2 C-1.34 2 -0.68 2 0 2 C0 1.34 0 0.68 0 0 Z " fill="#2C2C2D" transform="translate(13,121)"/>
<path d="M0 0 C5.01113235 1.4317521 6.94469549 3.98445693 10 8 C9.01 8.495 9.01 8.495 8 9 C7.21625 8.175 6.4325 7.35 5.625 6.5 C3.36278736 3.77011494 3.36278736 3.77011494 1 4 C0.67 2.68 0.34 1.36 0 0 Z " fill="#E1E1E1" transform="translate(256,100)"/>
<path d="M0 0 C3.25669165 3.08065427 6.10679924 5.89806503 8 10 C7.5703125 12.15234375 7.5703125 12.15234375 7 14 C5.82807953 12.04480616 4.6626071 10.0857461 3.5 8.125 C2.8503125 7.03445312 2.200625 5.94390625 1.53125 4.8203125 C0 2 0 2 0 0 Z " fill="#323237" transform="translate(361,89)"/>
<path d="M0 0 C0.33 0 0.66 0 1 0 C1.33 2.64 1.66 5.28 2 8 C2.99 8 3.98 8 5 8 C5 9.98 5 11.96 5 14 C4.34 13.01 3.68 12.02 3 11 C2.01 11.66 1.02 12.32 0 13 C0 8.71 0 4.42 0 0 Z " fill="#C8CCD4" transform="translate(250,160)"/>
<path d="M0 0 C1.1875 1.6875 1.1875 1.6875 2 4 C0.625 6.75 0.625 6.75 -1 9 C-1.66 8.34 -2.32 7.68 -3 7 C-2.75 3.9375 -2.75 3.9375 -2 1 C-1.34 0.67 -0.68 0.34 0 0 Z " fill="#2F3D42" transform="translate(117,116)"/>
<path d="M0 0 C0.66 0.33 1.32 0.66 2 1 C2.99 0.67 3.98 0.34 5 0 C7.6875 0.4375 7.6875 0.4375 10 1 C7.26900772 2.82066152 6.03686863 3.28544268 3 4 C1.3255761 4.6469365 -0.34302621 5.30959426 -2 6 C-1.125 1.125 -1.125 1.125 0 0 Z " fill="#272C30" transform="translate(138,89)"/>
<path d="M0 0 C2.94982021 1.14186589 4.88437775 2.67281553 7 5 C5.3125 5.6875 5.3125 5.6875 3 6 C0.25 4.6875 0.25 4.6875 -2 3 C-2 2.34 -2 1.68 -2 1 C-1.34 0.67 -0.68 0.34 0 0 Z " fill="#161719" transform="translate(306,32)"/>
<path d="M0 0 C1.33881598 0.31058118 2.67109117 0.64944301 4 1 C5.74690919 1.2143934 7.4974023 1.40107653 9.25 1.5625 C10.14203125 1.64628906 11.0340625 1.73007812 11.953125 1.81640625 C12.62859375 1.87699219 13.3040625 1.93757813 14 2 C14 2.33 14 2.66 14 3 C7.73 3 1.46 3 -5 3 C-3.68 2.34 -2.36 1.68 -1 1 C-0.67 0.67 -0.34 0.34 0 0 Z " fill="#CACFD1" transform="translate(174,312)"/>
<path d="M0 0 C0.99 0.33 1.98 0.66 3 1 C3.125 3.375 3.125 3.375 3 6 C2.34 6.66 1.68 7.32 1 8 C0.01 8 -0.98 8 -2 8 C-2 6.02 -2 4.04 -2 2 C-1.34 2 -0.68 2 0 2 C0 1.34 0 0.68 0 0 Z " fill="#1A2531" transform="translate(190,264)"/>
<path d="M0 0 C0.99 0.33 1.98 0.66 3 1 C1.57277341 2.1998278 0.13284224 3.3845576 -1.3125 4.5625 C-2.51326172 5.55443359 -2.51326172 5.55443359 -3.73828125 6.56640625 C-4.85783203 7.27603516 -4.85783203 7.27603516 -6 8 C-6.99 7.67 -7.98 7.34 -9 7 C-6.36797295 4.0755255 -3.39162974 1.97845068 0 0 Z " fill="#10141A" transform="translate(142,91)"/>
<path d="M0 0 C1.79244141 0.01740234 1.79244141 0.01740234 3.62109375 0.03515625 C5.41740234 0.04869141 5.41740234 0.04869141 7.25 0.0625 C8.17683594 0.07410156 9.10367188 0.08570313 10.05859375 0.09765625 C9.06859375 0.42765625 8.07859375 0.75765625 7.05859375 1.09765625 C6.72859375 1.75765625 6.39859375 2.41765625 6.05859375 3.09765625 C0.00390625 3.29296875 0.00390625 3.29296875 -1.94140625 3.09765625 C-2.60140625 2.43765625 -3.26140625 1.77765625 -3.94140625 1.09765625 C-2.94140625 0.09765625 -2.94140625 0.09765625 0 0 Z " fill="#09090A" transform="translate(222.94140625,381.90234375)"/>
<path d="M0 0 C0.33 0 0.66 0 1 0 C1.33 4.62 1.66 9.24 2 14 C1.01 14.66 0.02 15.32 -1 16 C-2.22602512 12.32192463 -1.70295577 10.11756073 -1.0625 6.3125 C-0.86785156 5.13300781 -0.67320312 3.95351562 -0.47265625 2.73828125 C-0.31667969 1.83464844 -0.16070312 0.93101562 0 0 Z " fill="#0A0C11" transform="translate(388,205)"/>
<path d="M0 0 C1.32 0.33 2.64 0.66 4 1 C-0.455 3.97 -0.455 3.97 -5 7 C-5 6.01 -5 5.02 -5 4 C-2.75 1.75 -2.75 1.75 0 0 Z " fill="#1F1F1F" transform="translate(78,36)"/>
<path d="M0 0 C-0.66 1.32 -1.32 2.64 -2 4 C-3.98 4 -5.96 4 -8 4 C-7 1 -7 1 -5.125 -0.25 C-3 -1 -3 -1 0 0 Z " fill="#232426" transform="translate(105,27)"/>
<path d="M0 0 C0.66 0 1.32 0 2 0 C0.70700306 2.88437779 -0.65941363 4.87219421 -3 7 C-3 6.34 -3 5.68 -3 5 C-3.99 5.33 -4.98 5.66 -6 6 C-6 5.34 -6 4.68 -6 4 C-5.34 4 -4.68 4 -4 4 C-4 3.01 -4 2.02 -4 1 C-2.68 1.33 -1.36 1.66 0 2 C0 1.34 0 0.68 0 0 Z " fill="#090A0B" transform="translate(355,303)"/>
<path d="M0 0 C0.66 0 1.32 0 2 0 C2.33 0.66 2.66 1.32 3 2 C3.66 1.67 4.32 1.34 5 1 C4.34 2.98 3.68 4.96 3 7 C2.67 6.34 2.34 5.68 2 5 C0.68 5.33 -0.64 5.66 -2 6 C-1.125 1.125 -1.125 1.125 0 0 Z " fill="#0F0F13" transform="translate(256,233)"/>
<path d="M0 0 C0.99 0.66 1.98 1.32 3 2 C3.1875 4.625 3.1875 4.625 3 7 C1.02 7 -0.96 7 -3 7 C-2.649375 6.38125 -2.29875 5.7625 -1.9375 5.125 C-1.628125 4.42375 -1.31875 3.7225 -1 3 C-1.33 2.34 -1.66 1.68 -2 1 C-1.34 0.67 -0.68 0.34 0 0 Z " fill="#E9EAEC" transform="translate(171,208)"/>
<path d="M0 0 C0.99 0 1.98 0 3 0 C2.814375 0.598125 2.62875 1.19625 2.4375 1.8125 C1.77906313 4.16408762 1.77906313 4.16408762 3 7 C1.68 7 0.36 7 -1 7 C-2.0625 5.125 -2.0625 5.125 -3 3 C-2.67 2.34 -2.34 1.68 -2 1 C-1.34 1.33 -0.68 1.66 0 2 C0 1.34 0 0.68 0 0 Z " fill="#2C2B30" transform="translate(284,137)"/>
<path d="M0 0 C3.63 0 7.26 0 11 0 C11 0.33 11 0.66 11 1 C10.05125 1.309375 9.1025 1.61875 8.125 1.9375 C5.13919592 2.87394742 5.13919592 2.87394742 3 4 C0.875 3.0625 0.875 3.0625 -1 2 C-0.67 1.34 -0.34 0.68 0 0 Z " fill="#2E2F31" transform="translate(173,4)"/>
<path d="M0 0 C3.63 1.65 7.26 3.3 11 5 C11 5.33 11 5.66 11 6 C7.14521782 6.35858439 5.42240542 6.2754818 2.125 4.125 C1.42375 3.42375 0.7225 2.7225 0 2 C0 1.34 0 0.68 0 0 Z " fill="#202020" transform="translate(111,366)"/>
<path d="M0 0 C1.99795425 3.99590851 2.3757916 5.67839666 2 10 C1.34 10.66 0.68 11.32 0 12 C-0.66 11.67 -1.32 11.34 -2 11 C-1.34 7.37 -0.68 3.74 0 0 Z " fill="#0C1216" transform="translate(369,272)"/>
<path d="M0 0 C0.99 0.33 1.98 0.66 3 1 C2.34 3.64 1.68 6.28 1 9 C0.67 7.68 0.34 6.36 0 5 C-0.99 4.67 -1.98 4.34 -3 4 C-2.01 2.68 -1.02 1.36 0 0 Z " fill="#DBE2E8" transform="translate(200,258)"/>
<path d="M0 0 C1.98 0.495 1.98 0.495 4 1 C4.33 2.65 4.66 4.3 5 6 C4.01 6.66 3.02 7.32 2 8 C0.4375 6.25 0.4375 6.25 -1 4 C-0.6875 1.75 -0.6875 1.75 0 0 Z " fill="#20242D" transform="translate(243,140)"/>
<path d="M0 0 C1.32 0.66 2.64 1.32 4 2 C3.01 2.495 3.01 2.495 2 3 C1.67 3.66 1.34 4.32 1 5 C0.01 5.66 -0.98 6.32 -2 7 C-2.6875 5.1875 -2.6875 5.1875 -3 3 C-1.5625 1.25 -1.5625 1.25 0 0 Z " fill="#DFE4EC" transform="translate(133,100)"/>
<path d="M0 0 C0 1.32 0 2.64 0 4 C-0.94875 3.814375 -1.8975 3.62875 -2.875 3.4375 C-5.89868793 2.71313368 -5.89868793 2.71313368 -8 4 C-8.33 3.01 -8.66 2.02 -9 1 C-3.375 -1.125 -3.375 -1.125 0 0 Z " fill="#2C2B2F" transform="translate(144,11)"/>
<path d="M0 0 C0.66 0.33 1.32 0.66 2 1 C2.4140625 3.06640625 2.4140625 3.06640625 2.625 5.5625 C2.69976562 6.38878906 2.77453125 7.21507812 2.8515625 8.06640625 C2.90054688 8.70449219 2.94953125 9.34257812 3 10 C1.68 8.68 0.36 7.36 -1 6 C-0.34 6 0.32 6 1 6 C0.01 4.35 -0.98 2.7 -2 1 C-1.34 0.67 -0.68 0.34 0 0 Z " fill="#060608" transform="translate(54,321)"/>
<path d="M0 0 C-1.29299694 2.88437779 -2.65941363 4.87219421 -5 7 C-6.125 3.25 -6.125 3.25 -5 1 C-2 0 -2 0 0 0 Z " fill="#E4E8EA" transform="translate(240,256)"/>
<path d="M0 0 C0 0.99 0 1.98 0 3 C-2.97 2.67 -5.94 2.34 -9 2 C-9 1.34 -9 0.68 -9 0 C-5.52176885 -1.15941038 -3.54104422 -0.70820884 0 0 Z " fill="#E4E5E7" transform="translate(184,212)"/>
<path d="M0 0 C0 3.22124915 -0.79255542 5.05685384 -2 8 C-2 8.66 -2 9.32 -2 10 C-2.99 10 -3.98 10 -5 10 C-5.33 10.99 -5.66 11.98 -6 13 C-5.51675181 7.84535266 -2.81389239 4.18449681 0 0 Z " fill="#D3DEE3" transform="translate(121,116)"/>
<path d="M0 0 C0 3 0 3 -2 6 C-2 6.66 -2 7.32 -2 8 C-3.65 8.66 -5.3 9.32 -7 10 C-5.6062718 5.56541027 -3.39417765 3.12621626 0 0 Z " fill="#D1D7DC" transform="translate(129,106)"/>
<path d="M0 0 C-1.28524261 0.86380259 -2.57842419 1.71580369 -3.875 2.5625 C-4.59429687 3.03816406 -5.31359375 3.51382813 -6.0546875 4.00390625 C-6.69664063 4.33261719 -7.33859375 4.66132812 -8 5 C-8.66 4.67 -9.32 4.34 -10 4 C-4.75 -1.425 -4.75 -1.425 0 0 Z " fill="#262727" transform="translate(93,30)"/>
<path d="M0 0 C0.99 0.66 1.98 1.32 3 2 C0.69 4.31 -1.62 6.62 -4 9 C-4.33 8.34 -4.66 7.68 -5 7 C-4.0625 4.875 -4.0625 4.875 -3 3 C-2.34 3 -1.68 3 -1 3 C-0.67 2.01 -0.34 1.02 0 0 Z " fill="#060708" transform="translate(336,325)"/>
<path d="M0 0 C-1.98 2.97 -1.98 2.97 -4 6 C-4.33 5.01 -4.66 4.02 -5 3 C-5.99 3.495 -5.99 3.495 -7 4 C-7 3.01 -7 2.02 -7 1 C-4.53721199 -0.231394 -2.7204945 -0.07159196 0 0 Z " fill="#0C0C0C" transform="translate(344,320)"/>
<path d="M0 0 C0.33 0.99 0.66 1.98 1 3 C0.67 3.66 0.34 4.32 0 5 C0.66 5.33 1.32 5.66 2 6 C1.01 6.99 0.02 7.98 -1 9 C-1.66 7.35 -2.32 5.7 -3 4 C-2.34 3.67 -1.68 3.34 -1 3 C-0.67 2.01 -0.34 1.02 0 0 Z " fill="#111418" transform="translate(365,283)"/>
<path d="M0 0 C0.33 0 0.66 0 1 0 C1.25 2.25 1.25 2.25 1 5 C-0.875 7.3125 -0.875 7.3125 -3 9 C-3.66 9 -4.32 9 -5 9 C-3.50164236 5.88802644 -1.86022073 2.91164984 0 0 Z " fill="#242425" transform="translate(270,212)"/>
<path d="M0 0 C2.4375 0.375 2.4375 0.375 5 1 C5.33 1.66 5.66 2.32 6 3 C5.01 3.99 4.02 4.98 3 6 C1.5 4.6875 1.5 4.6875 0 3 C0 2.01 0 1.02 0 0 Z " fill="#111214" transform="translate(154,192)"/>
<path d="M0 0 C0.33 0 0.66 0 1 0 C0.67 2.31 0.34 4.62 0 7 C-1.32 7.33 -2.64 7.66 -4 8 C-2.87548273 5.0280615 -1.77706209 2.66559313 0 0 Z " fill="#E1EDF1" transform="translate(245,184)"/>
<path d="M0 0 C0.25 2.8125 0.25 2.8125 0 6 C-2 7.875 -2 7.875 -4 9 C-3.4140625 2.84765625 -3.4140625 2.84765625 -3 1 C-1 0 -1 0 0 0 Z " fill="#F2FBFC" transform="translate(249,182)"/>
<path d="M0 0 C1.85776765 3.13498292 2.20140476 5.37471432 2 9 C1.34 9 0.68 9 0 9 C-2 6 -2 6 -1.6875 3.9375 C-1 2 -1 2 0 0 Z " fill="#121214" transform="translate(150,181)"/>
<path d="M0 0 C0.66 0.33 1.32 0.66 2 1 C1.67 1.99 1.34 2.98 1 4 C0.34 4 -0.32 4 -1 4 C-1.33 5.65 -1.66 7.3 -2 9 C-2.66 8.67 -3.32 8.34 -4 8 C-3.40138258 5.64828869 -2.73075648 3.3140622 -2 1 C-1.34 0.67 -0.68 0.34 0 0 Z " fill="#172C39" transform="translate(244,176)"/>
<path d="M0 0 C0.33 0 0.66 0 1 0 C1 2.31 1 4.62 1 7 C-1.4375 6.1875 -1.4375 6.1875 -4 5 C-4.33 4.01 -4.66 3.02 -5 2 C-3.68 2 -2.36 2 -1 2 C-0.67 1.34 -0.34 0.68 0 0 Z " fill="#242328" transform="translate(277,115)"/>
<path d="M0 0 C3.37503669 1.1858237 5.64722731 2.27573689 8 5 C5.36 4.67 2.72 4.34 0 4 C0 2.68 0 1.36 0 0 Z " fill="#E8E8E8" transform="translate(243,90)"/>
<path d="M0 0 C4.20390632 1.50139512 5.89110738 4.17275043 8 8 C7.67 8.99 7.34 9.98 7 11 C5.83051998 9.35616456 4.6644855 7.70987731 3.5 6.0625 C2.8503125 5.14597656 2.200625 4.22945313 1.53125 3.28515625 C0 1 0 1 0 0 Z " fill="#2D2F2F" transform="translate(352,77)"/>
<path d="M0 0 C2.97 0 5.94 0 9 0 C9 0.99 9 1.98 9 3 C5.26512223 2.5020163 3.18762365 2.12508244 0 0 Z " fill="#050506" transform="translate(147,379)"/>
<path d="M0 0 C0 0.99 0 1.98 0 3 C-6.625 6.125 -6.625 6.125 -10 5 C-8.71186658 4.16121545 -7.41936744 3.32913217 -6.125 2.5 C-5.40570313 2.0359375 -4.68640625 1.571875 -3.9453125 1.09375 C-2 0 -2 0 0 0 Z " fill="#060708" transform="translate(279,365)"/>
<path d="M0 0 C0.33 0.99 0.66 1.98 1 3 C-2.625 6 -2.625 6 -6 6 C-6 5.34 -6 4.68 -6 4 C-5.34 4 -4.68 4 -4 4 C-4.33 3.01 -4.66 2.02 -5 1 C-3.68 1 -2.36 1 -1 1 C-0.67 0.67 -0.34 0.34 0 0 Z " fill="#161618" transform="translate(315,345)"/>
<path d="M0 0 C0.99 0.33 1.98 0.66 3 1 C2.67 1.66 2.34 2.32 2 3 C2.33 3.99 2.66 4.98 3 6 C2.34 6 1.68 6 1 6 C1 6.66 1 7.32 1 8 C0.34 8 -0.32 8 -1 8 C-2.2077558 4.37673261 -1.54311128 3.35853631 0 0 Z " fill="#0D0E12" transform="translate(205,303)"/>
<path d="M0 0 C1.32 0 2.64 0 4 0 C2.70700306 2.88437779 1.34058637 4.87219421 -1 7 C-1.33 5.35 -1.66 3.7 -2 2 C-1.34 2 -0.68 2 0 2 C0 1.34 0 0.68 0 0 Z " fill="#1E2A30" transform="translate(196,258)"/>
<path d="M0 0 C2 1.5625 2 1.5625 4 4 C4.25 7.75 4.25 7.75 4 11 C0.85041169 7.57653445 0.43820891 4.55737263 0 0 Z " fill="#070709" transform="translate(12,253)"/>
<path d="M0 0 C0.66 0.33 1.32 0.66 2 1 C1.50168276 4.68754757 0.89932357 6.60490662 -2 9 C-2 7.02 -2 5.04 -2 3 C-1.34 3 -0.68 3 0 3 C0 2.01 0 1.02 0 0 Z " fill="#EAEAEB" transform="translate(268,209)"/>
<path d="M0 0 C0.33 0 0.66 0 1 0 C1 1.98 1 3.96 1 6 C1.66 6 2.32 6 3 6 C2.67 7.98 2.34 9.96 2 12 C1.34 10.68 0.68 9.36 0 8 C-0.66 8 -1.32 8 -2 8 C-1.34 5.36 -0.68 2.72 0 0 Z " fill="#F9F8FD" transform="translate(252,175)"/>
<path d="M0 0 C1.9375 0.375 1.9375 0.375 4 1 C4.33 1.66 4.66 2.32 5 3 C4.67 3.66 4.34 4.32 4 5 C2.0625 4.625 2.0625 4.625 0 4 C-0.33 3.34 -0.66 2.68 -1 2 C-0.67 1.34 -0.34 0.68 0 0 Z " fill="#282828" transform="translate(251,88)"/>
<path d="M0 0 C0.33 0.99 0.66 1.98 1 3 C-0.40445835 5.2636564 -2.1967913 7.0208685 -4 9 C-5 6 -5 6 -4 3 C-1.9375 2.3125 -1.9375 2.3125 0 2 C0 1.34 0 0.68 0 0 Z " fill="#E6EAEC" transform="translate(206,299)"/>
<path d="M0 0 C0.99 0.33 1.98 0.66 3 1 C3 1.66 3 2.32 3 3 C2.05125 3.45375 1.1025 3.9075 0.125 4.375 C-3.00313679 5.80238254 -3.00313679 5.80238254 -5 8 C-4.66275164 4.88045262 -4.3790035 3.3790035 -2.125 1.125 C-1.42375 0.75375 -0.7225 0.3825 0 0 Z " fill="#101219" transform="translate(174,288)"/>
<path d="M0 0 C0.99 0 1.98 0 3 0 C3.33 1.32 3.66 2.64 4 4 C2.35 4.33 0.7 4.66 -1 5 C-0.67 3.35 -0.34 1.7 0 0 Z " fill="#131418" transform="translate(219,283)"/>
<path d="M0 0 C0.33 0.66 0.66 1.32 1 2 C1.66 2 2.32 2 3 2 C4.125 4.3125 4.125 4.3125 5 7 C4.01 8.485 4.01 8.485 3 10 C0 3.375 0 3.375 0 0 Z " fill="#1A1A1A" transform="translate(11,258)"/>
<path d="M0 0 C0.99 0 1.98 0 3 0 C3.33 1.65 3.66 3.3 4 5 C2.35 5 0.7 5 -1 5 C-0.67 3.35 -0.34 1.7 0 0 Z " fill="#101115" transform="translate(282,187)"/>
<path d="M0 0 C0.66 0 1.32 0 2 0 C1.34 2.97 0.68 5.94 0 9 C-2 6 -2 6 -1.6875 3.9375 C-1 2 -1 2 0 0 Z " fill="#2C444B" transform="translate(110,136)"/>
<path d="M0 0 C1.32 0.66 2.64 1.32 4 2 C2.25 6.875 2.25 6.875 0 8 C-0.79953138 4.71303767 -1.09658936 3.28976808 0 0 Z " fill="#131315" transform="translate(11,129)"/>
<path d="M0 0 C0.99 0.33 1.98 0.66 3 1 C3 1.99 3 2.98 3 4 C0.36 3.67 -2.28 3.34 -5 3 C-2 1 -2 1 0 0 Z " fill="#E6E7E8" transform="translate(213,107)"/>
<path d="M0 0 C0.66 0 1.32 0 2 0 C2 0.66 2 1.32 2 2 C2.66 2 3.32 2 4 2 C4 2.66 4 3.32 4 4 C0.25 5.125 0.25 5.125 -2 4 C-1.34 2.68 -0.68 1.36 0 0 Z " fill="#E5E9EC" transform="translate(168,80)"/>
<path d="M0 0 C1.32 0.33 2.64 0.66 4 1 C3.67 2.65 3.34 4.3 3 6 C0.525 5.01 0.525 5.01 -2 4 C-1.34 2.68 -0.68 1.36 0 0 Z " fill="#303032" transform="translate(173,73)"/>
<path d="M0 0 C-5.2734375 3.22265625 -5.2734375 3.22265625 -7 4 C-7.66 3.67 -8.32 3.34 -9 3 C-5.83583464 -0.30799106 -4.50236011 -1.35070803 0 0 Z " fill="#28292B" transform="translate(107,22)"/>
<path d="M0 0 C2.97 0.495 2.97 0.495 6 1 C5.67 1.66 5.34 2.32 5 3 C2.93359375 3.4140625 2.93359375 3.4140625 0.4375 3.625 C-0.38878906 3.69976562 -1.21507812 3.77453125 -2.06640625 3.8515625 C-3.02353516 3.92503906 -3.02353516 3.92503906 -4 4 C-3.01 3.67 -2.02 3.34 -1 3 C-0.67 2.01 -0.34 1.02 0 0 Z " fill="#262626" transform="translate(234,380)"/>
<path d="M0 0 C-2.3129482 2.3129482 -3.47904875 2.49580975 -6.625 3.125 C-7.44226563 3.29257812 -8.25953125 3.46015625 -9.1015625 3.6328125 C-10.04128906 3.81457031 -10.04128906 3.81457031 -11 4 C-7.66477677 0.47086844 -4.87838929 -1.62612976 0 0 Z " fill="#040406" transform="translate(267,372)"/>
<path d="M0 0 C0.66 0 1.32 0 2 0 C1.67 1.65 1.34 3.3 1 5 C-0.32 5.33 -1.64 5.66 -3 6 C-1.125 1.125 -1.125 1.125 0 0 Z " fill="#131518" transform="translate(350,308)"/>
<path d="M0 0 C0.33 0.66 0.66 1.32 1 2 C1.66 2 2.32 2 3 2 C2.67 2.66 2.34 3.32 2 4 C1.67 4 1.34 4 1 4 C0.01 7.465 0.01 7.465 -1 11 C-2.60080151 6.99799622 -1.29279692 3.95443764 0 0 Z " fill="#101019" transform="translate(383,233)"/>
<path d="M0 0 C3.66881155 0.70554068 6.70450534 2.27735506 10 4 C7.33438378 4.98726527 6.09873015 5.0275526 3.3125 4.25 C1 3 1 3 0 0 Z " fill="#040508" transform="translate(174,206)"/>
<path d="M0 0 C0 2.31 0 4.62 0 7 C-0.99 7 -1.98 7 -3 7 C-2.67 5.68 -2.34 4.36 -2 3 C-2.66 2.67 -3.32 2.34 -4 2 C-1 0 -1 0 0 0 Z " fill="#D1DDE3" transform="translate(241,192)"/>
<path d="M0 0 C0.99 0.99 1.98 1.98 3 3 C2.67 3.99 2.34 4.98 2 6 C0.68 6 -0.64 6 -2 6 C-2 5.01 -2 4.02 -2 3 C-1.34 3 -0.68 3 0 3 C0 2.01 0 1.02 0 0 Z " fill="#2B2C30" transform="translate(371,114)"/>
<path d="M0 0 C1.65 0 3.3 0 5 0 C5.33 0.99 5.66 1.98 6 3 C3.69 3 1.38 3 -1 3 C-0.67 2.01 -0.34 1.02 0 0 Z " fill="#F8F9FA" transform="translate(183,106)"/>
<path d="M0 0 C0.66 0.66 1.32 1.32 2 2 C1.625 4.125 1.625 4.125 1 6 C-0.32 5.67 -1.64 5.34 -3 5 C-1.125 1.125 -1.125 1.125 0 0 Z " fill="#303135" transform="translate(363,98)"/>
<path d="M0 0 C1.9375 0.6875 1.9375 0.6875 4 2 C4.75 4.625 4.75 4.625 5 7 C4.34 7 3.68 7 3 7 C0.70351351 4.4385343 0 3.52032428 0 0 Z " fill="#E9EAEB" transform="translate(252,96)"/>
<path d="M0 0 C0.66 0.66 1.32 1.32 2 2 C1.625 4.125 1.625 4.125 1 6 C0.67 5.34 0.34 4.68 0 4 C-0.66 4 -1.32 4 -2 4 C-2 4.66 -2 5.32 -2 6 C-2.66 5.67 -3.32 5.34 -4 5 C-2.25 1.125 -2.25 1.125 0 0 Z " fill="#121315" transform="translate(27,98)"/>
<path d="M0 0 C0.33 0.99 0.66 1.98 1 3 C1.99 3.33 2.98 3.66 4 4 C1.35261084 5.4606285 0.10551666 6 -3 6 C-2.67 5.01 -2.34 4.02 -2 3 C-2 2.34 -2 1.68 -2 1 C-1.34 0.67 -0.68 0.34 0 0 Z " fill="#272B34" transform="translate(131,96)"/>
<path d="M0 0 C0.33 0.66 0.66 1.32 1 2 C0.01 3.485 0.01 3.485 -1 5 C-1.66 5 -2.32 5 -3 5 C-3.66 6.65 -4.32 8.3 -5 10 C-5.33 9.34 -5.66 8.68 -6 8 C-2.25 2.25 -2.25 2.25 0 0 Z " fill="#090909" transform="translate(44,71)"/>
<path d="M0 0 C0.66 0 1.32 0 2 0 C3.32 2.31 4.64 4.62 6 7 C3.03 6.505 3.03 6.505 0 6 C0 4.02 0 2.04 0 0 Z " fill="#2E2F34" transform="translate(341,66)"/>
<path d="M0 0 C4.8 3.44615385 4.8 3.44615385 5.8125 6.25 C5.874375 6.8275 5.93625 7.405 6 8 C1.125 3.375 1.125 3.375 0 0 Z " fill="#070609" transform="translate(38,304)"/>
<path d="M0 0 C2.35953094 2.35953094 2.49141413 3.77895617 3 7 C2.01 7 1.02 7 0 7 C-0.66 5.68 -1.32 4.36 -2 3 C-1.34 3 -0.68 3 0 3 C0 2.01 0 1.02 0 0 Z " fill="#121314" transform="translate(31,293)"/>
<path d="M0 0 C0.33 1.32 0.66 2.64 1 4 C-0.98 4 -2.96 4 -5 4 C-4.67 3.01 -4.34 2.02 -4 1 C-1.9375 0.3125 -1.9375 0.3125 0 0 Z " fill="#CAD8DD" transform="translate(184,283)"/>
<path d="M0 0 C1.0625 1.8125 1.0625 1.8125 2 4 C1.67 4.99 1.34 5.98 1 7 C-0.32 6.34 -1.64 5.68 -3 5 C-2.01 3.35 -1.02 1.7 0 0 Z " fill="#242527" transform="translate(274,205)"/>
<path d="M0 0 C0.99 0 1.98 0 3 0 C2.01 2.97 1.02 5.94 0 9 C-0.33 9 -0.66 9 -1 9 C-0.67 6.03 -0.34 3.06 0 0 Z " fill="#DFE1E1" transform="translate(275,196)"/>
<path d="M0 0 C0.33 0.66 0.66 1.32 1 2 C1.66 2 2.32 2 3 2 C2.67 2.99 2.34 3.98 2 5 C-0.0625 5.6875 -0.0625 5.6875 -2 6 C-2 3 -2 3 0 0 Z " fill="#1A2933" transform="translate(235,188)"/>
<path d="M0 0 C0.99 0 1.98 0 3 0 C2.34 1.98 1.68 3.96 1 6 C0.34 6 -0.32 6 -1 6 C-1.042721 4.33388095 -1.04063832 2.66617115 -1 1 C-0.67 0.67 -0.34 0.34 0 0 Z " fill="#2B3E49" transform="translate(246,176)"/>
<path d="M0 0 C1.485 0.99 1.485 0.99 3 2 C3.6875 5.625 3.6875 5.625 4 9 C1.18167487 7.59083743 0.97406539 5.92219617 0 3 C0 2.01 0 1.02 0 0 Z " fill="#121115" transform="translate(275,120)"/>
<path d="M0 0 C0.66 0.33 1.32 0.66 2 1 C2 1.99 2 2.98 2 4 C0.35 4.66 -1.3 5.32 -3 6 C-3 3 -3 3 -1.5 1.3125 C-0.7575 0.6628125 -0.7575 0.6628125 0 0 Z " fill="#D8DCE0" transform="translate(149,89)"/>
<path d="M0 0 C2.64 0.33 5.28 0.66 8 1 C6.515 2.485 6.515 2.485 5 4 C4.01 3.67 3.02 3.34 2 3 C2 2.34 2 1.68 2 1 C1.34 0.67 0.68 0.34 0 0 Z " fill="#3B3C3E" transform="translate(237,7)"/>
</svg>
